<?xml version="1.0" encoding="utf-8"?>
<svg xmlns="http://www.w3.org/2000/svg" viewBox="0 0 1395 173" xmlns:bx="https://boxy-svg.com">
  <desc>© Google LLC</desc>
  <title>TensorFlow Quantum logo</title>
  <defs>
    <clipPath id="clippath5" transform="">
      <path d="M 1660.4919433594 1896.3570556641 L 1660.4919433594 1754.7370605469 L 1684.6429443359 1768.7690429688 L 1684.6429443359 1808.6090087891 L 1702.8929443359 1798.0520019531 L 1702.791015625 1825.3039550781 L 1684.6429443359 1835.666015625 L 1684.6429443359 1851.4969482422 L 1721.0450439453 1830.4659423828 L 1720.9639892578 1861.8070068359 L 1660.4940185547 1896.3570556641 Z" style="fill: none; clip-rule: nonzero;"/>
    </clipPath>
    <linearGradient id="shading3" gradientUnits="userSpaceOnUse" x1="0" y1="0" x2="1" y2="0">
      <stop offset="0" style="stop-color: rgb(242, 112, 33);"/>
      <stop offset="1" style="stop-color: rgb(249, 166, 25);"/>
    </linearGradient>
    <clipPath id="clippath6" transform="">
      <path d="M 1655.0510253906 1896.3570556641 L 1594.58203125 1861.8070068359 L 1594.4959716797 1830.4659423828 L 1630.8969726563 1851.4969482422 L 1630.8969726563 1768.7690429688 L 1655.0520019531 1754.7370605469 L 1655.0520019531 1896.3570556641 Z" style="fill: none; clip-rule: nonzero;"/>
    </clipPath>
    <linearGradient id="shading4" gradientUnits="userSpaceOnUse" x1="0" y1="0" x2="1" y2="0">
      <stop offset="0" style="stop-color: rgb(242, 112, 33);"/>
      <stop offset="1" style="stop-color: rgb(249, 166, 25);"/>
    </linearGradient>
    <clipPath id="clippath7" transform="">
      <path d="M 0 3600 L 3600 3600 L 3600 0 L 0 0 Z" style="fill: none; clip-rule: nonzero;"/>
    </clipPath>
    <bx:export>
      <bx:file format="png" path="TensorFlow Quantum logo.png"/>
    </bx:export>
  </defs>
  <g transform="matrix(1, 0, 0, -1, -1594.495972, -1896.358521)" style="transform-origin: 1594.5px 1896.36px;">
    <path d="M 1660.4919433594 1896.3570556641 L 1660.4919433594 1754.7370605469 L 1684.6429443359 1768.7690429688 L 1684.6429443359 1808.6090087891 L 1702.8929443359 1798.0520019531 L 1702.791015625 1825.3039550781 L 1684.6429443359 1835.666015625 L 1684.6429443359 1851.4969482422 L 1721.0450439453 1830.4659423828 L 1720.9639892578 1861.8070068359 L 1660.4940185547 1896.3570556641 Z" style="fill: none;"/>
  </g>
  <g style="clip-path: url(&quot;#clippath5&quot;); transform-origin: 1594.5px 1896.36px;" transform="matrix(1, 0, 0, -1, -1594.495972, -1896.358521)">
    <g transform="matrix(148.5050049 0 0 148.5050049 1588.9943848 1825.5471191)">
      <rect x="-10.69993826719843" y="-12.292832287566897" width="24.241607226801285" height="24.241607226801285" style="fill: url(&quot;#shading3&quot;);"/>
    </g>
  </g>
  <g transform="matrix(1, 0, 0, -1, -1594.495972, -1896.358521)" style="transform-origin: 1594.5px 1896.36px;">
    <path d="M 1655.0510253906 1896.3570556641 L 1594.58203125 1861.8070068359 L 1594.4959716797 1830.4659423828 L 1630.8969726563 1851.4969482422 L 1630.8969726563 1768.7690429688 L 1655.0520019531 1754.7370605469 L 1655.0520019531 1896.3570556641 Z" style="fill: none;"/>
  </g>
  <g style="clip-path: url(&quot;#clippath6&quot;); transform-origin: 1594.5px 1896.36px;" transform="matrix(1, 0, 0, -1, -1594.495972, -1896.358521)">
    <g transform="matrix(148.5050049 0 0 148.5050049 1587.9902344 1825.5471191)">
      <rect x="-10.693176539533585" y="-12.292832287566897" width="24.241607226801285" height="24.241607226801285" style="fill: url(&quot;#shading4&quot;);"/>
    </g>
  </g>
  <g style="clip-path: url(&quot;#clippath7&quot;); transform-origin: 1594.5px 1896.36px;" transform="matrix(1, 0, 0, -1, -1594.495972, -1896.358521)">
    <g transform="translate(1670.7391 1755.1937)">
      <path d="M 0 0 C 0 -17.1809997559 13.9280004501 -31.1089992523 31.1089992523 -31.1089992523 C 48.2890014648 -31.1089992523 62.216999054 -17.1809997559 62.216999054 0 C 62.216999054 17.1809997559 48.2890014648 31.1089992523 31.1089992523 31.1089992523 C 13.9280004501 31.1089992523 0 17.1809997559 0 0" style="fill: rgb(66, 80, 102); fill-opacity: 1;"/>
    </g>
  </g>
  <g style="clip-path: url(&quot;#clippath7&quot;); transform-origin: 1594.5px 1896.36px;" transform="matrix(1, 0, 0, -1, -1594.495972, -1896.358521)">
    <g transform="translate(1701.903 1766.9811)">
      <path d="M 0 0 L 10.1520004272 -5.882999897 L 10.1520004272 -17.6490001678 L 0.0520000011 -11.7139997482 L -5.0500001907 -14.734000206 L 10.2449998856 -23.7530002594 L 15.3950004578 -20.8250007629 L 15.3950004578 -2.9519999027 L -0.1059999987 6.1869997978 L -15.5050001144 -2.9519999027 L -15.5050001144 -20.7740001678 L -0.1059999987 -29.7609996796 L 5.1209998131 -26.7520008087 L 5.1459999084 -20.7689990997 L -0.1309999973 -23.7280006409 L -10.3299999237 -17.8209991455 L -10.3299999237 -5.9050002098 Z" style="fill: rgb(255, 255, 255); fill-opacity: 1;"/>
    </g>
  </g>
  <g style="clip-path: url(&quot;#clippath7&quot;); transform-origin: 1594.5px 1896.36px;" transform="matrix(1, 0, 0, -1, -1594.495972, -1896.358521)">
    <g transform="translate(1847.3201 1856.0872)">
      <path d="M 0 0 L -29.8260002136 0 L -29.8260002136 -82.4700012207 L -46.313999176 -82.4700012207 L -46.313999176 0 L -75.8769989014 0 L -75.8769989014 13.4390001297 L 0 13.4390001297 Z" style="fill: rgb(67, 81, 102); fill-opacity: 1;"/>
    </g>
  </g>
  <g style="clip-path: url(&quot;#clippath7&quot;); transform-origin: 1594.5px 1896.36px;" transform="matrix(1, 0, 0, -1, -1594.495972, -1896.358521)">
    <g transform="translate(1865.2045 1833.3623)">
      <path d="M 0 0 C -4.3800001144 0 -7.9180002213 -1.5360000134 -10.609000206 -4.6129999161 C -13.3009996414 -7.6869997978 -15.0200004578 -11.968000412 -15.7670001984 -17.4570007324 L 14.6499996185 -17.4570007324 L 14.6499996185 -16.2719993591 C 14.3000001907 -10.9130001068 12.8780002594 -6.8649997711 10.3800001144 -4.117000103 C 7.8839998245 -1.371999979 4.4260001183 0 0 0 M 1.9060000181 -61.0649986267 C -8.2110004425 -61.0649986267 -16.4150009155 -57.8699989319 -22.6979999542 -51.4790000916 C -28.9839992523 -45.091999054 -32.125 -36.5789985657 -32.125 -25.952999115 L -32.125 -23.9769992828 C -32.125 -16.8640003204 -30.7560005188 -10.5080003738 -28.0189990997 -4.9079999924 C -25.281999588 0.6919999719 -21.4400005341 5.0460000038 -16.4880008698 8.1680002213 C -11.5389995575 11.2840003967 -6.0229997635 12.843000412 0.0689999983 12.843000412 C 9.7440004349 12.843000412 17.2229995728 9.7469997406 22.5 3.5550000668 C 27.7789993286 -2.6340000629 30.4169998169 -11.3940000534 30.4169998169 -22.7269992828 L 30.4169998169 -29.1830005646 L -16.0300006866 -29.1830005646 C -15.5500001907 -35.0699996948 -13.5869998932 -39.7210006714 -10.1520004272 -43.1459999084 C -6.7129998207 -46.5750007629 -2.385999918 -48.2869987488 2.8250000477 -48.2869987488 C 10.1400003433 -48.2869987488 16.0949993134 -45.3170013428 20.6959991455 -39.3930015564 L 29.2999992371 -47.6259994507 C 26.452999115 -51.8839988708 22.6520004272 -55.1899986267 17.9020004272 -57.5410003662 C 13.1520004272 -59.8880004883 7.8189997673 -61.0649986267 1.9060000181 -61.0649986267" style="fill: rgb(67, 81, 102); fill-opacity: 1;"/>
    </g>
  </g>
  <g style="clip-path: url(&quot;#clippath7&quot;); transform-origin: 1594.5px 1896.36px;" transform="matrix(1, 0, 0, -1, -1594.495972, -1896.358521)">
    <g transform="translate(1922.8209 1844.8887)">
      <path d="M 0 0 L 0.4609999955 -8.2329998016 C 5.7140002251 -1.8650000095 12.6140003204 1.3190000057 21.1539993286 1.3190000057 C 35.9560012817 1.3190000057 43.4889984131 -7.1820001602 43.7519989014 -24.1760005951 L 43.7519989014 -71.2710037231 L 27.7910003662 -71.2710037231 L 27.7910003662 -25.0970001221 C 27.7910003662 -20.5750007629 26.8150005341 -17.2269992828 24.8630008698 -15.0520000458 C 22.9150009155 -12.876999855 19.7280006409 -11.7919998169 15.3059997559 -11.7919998169 C 8.8669996262 -11.7919998169 4.0710000992 -14.7159996033 0.9190000296 -20.5520000458 L 0.9190000296 -71.2710037231 L -15.0469999313 -71.2710037231 L -15.0469999313 0 Z" style="fill: rgb(67, 81, 102); fill-opacity: 1;"/>
    </g>
  </g>
  <g style="clip-path: url(&quot;#clippath7&quot;); transform-origin: 1594.5px 1896.36px;" transform="matrix(1, 0, 0, -1, -1594.495972, -1896.358521)">
    <g transform="translate(2018.3726 1792.9819)">
      <path d="M 0 0 C 0 2.8550000191 -1.1740000248 5.0260000229 -3.5150001049 6.5209999084 C -5.859000206 8.0150003433 -9.748000145 9.3299999237 -15.1759996414 10.4729995728 C -20.6089992523 11.6160001755 -25.1410007477 13.0649995804 -28.7740001678 14.8229999542 C -36.7449989319 18.6870002747 -40.733001709 24.2870006561 -40.733001709 31.6180000305 C -40.733001709 37.763999939 -38.1479988098 42.9049987793 -32.9790000916 47.033000946 C -27.8129997253 51.1619987488 -21.2409992218 53.2260017395 -13.2700004578 53.2260017395 C -4.7729997635 53.2260017395 2.0889999866 51.1160011292 7.3229999542 46.9039993286 C 12.5570001602 42.6839981079 15.1719999313 37.2140007019 15.1719999313 30.4979991913 L -0.7889999747 30.4979991913 C -0.7889999747 33.5709991455 -1.92900002 36.1290016174 -4.2049999237 38.1699981689 C -6.484000206 40.2140007019 -9.5039997101 41.2350006104 -13.2700004578 41.2350006104 C -16.7740001678 41.2350006104 -19.6329994202 40.4210014343 -21.8439998627 38.797000885 C -24.0590000153 37.1759986877 -25.1639995575 34.9970016479 -25.1639995575 32.2760009766 C -25.1639995575 29.8180007935 -24.1350002289 27.906999588 -22.0760002136 26.545999527 C -20.013999939 25.1849994659 -15.8549995422 23.8090000153 -9.5909996033 22.4290008545 C -3.3320000172 21.045999527 1.5859999657 19.3980007172 5.1579999924 17.4869995117 C 8.7259998322 15.5799999237 11.3760004044 13.2860002518 13.1059999466 10.6029996872 C 14.8369998932 7.9270000458 15.7019996643 4.6789999008 15.7019996643 0.8600000143 C 15.7019996643 -5.5539999008 13.0489997864 -10.748000145 7.75 -14.7229995728 C 2.4509999752 -18.6989994049 -4.4910001755 -20.6819992065 -13.0760002136 -20.6819992065 C -18.9009990692 -20.6819992065 -24.0890007019 -19.6310005188 -28.6450004578 -17.5209999084 C -33.2000007629 -15.4110002518 -36.7449989319 -12.513999939 -39.2879981995 -8.829000473 C -41.8269996643 -5.1370000839 -43.0970001221 -1.1660000086 -43.0970001221 3.0959999561 L -27.593000412 3.0959999561 C -27.375 -0.6800000072 -25.9489994049 -3.5889999866 -23.3229999542 -5.6339998245 C -20.6959991455 -7.6750001907 -17.2119998932 -8.6920003891 -12.876999855 -8.6920003891 C -8.6730003357 -8.6920003891 -5.478000164 -7.8930001259 -3.2860000134 -6.2909998894 C -1.0980000496 -4.6900000572 0 -2.5910000801 0 0" style="fill: rgb(67, 81, 102); fill-opacity: 1;"/>
    </g>
  </g>
  <g style="clip-path: url(&quot;#clippath7&quot;); transform-origin: 1594.5px 1896.36px;" transform="matrix(1, 0, 0, -1, -1594.495972, -1896.358521)">
    <g transform="translate(2058.2512 1808.5283)">
      <path d="M 0 0 C 0 -7.3350000381 1.5099999905 -13.0760002136 4.5329999924 -17.2269992828 C 7.5560002327 -21.3780002594 11.7569999695 -23.454000473 17.1469993591 -23.454000473 C 22.5340003967 -23.454000473 26.7269992828 -21.3439998627 29.7280006409 -17.1240005493 C 32.7280006409 -12.9119997025 34.2290000916 -6.742000103 34.2290000916 1.3799999952 C 34.2290000916 8.5850000381 32.686000824 14.2919998169 29.5979995728 18.5079994202 C 26.5100002289 22.7240009308 22.3169994354 24.8330001831 17.013999939 24.8330001831 C 11.8030004501 24.8330001831 7.6630001068 22.7579994202 4.6009998322 18.607000351 C 1.5329999924 14.4560003281 0 8.251999855 0 0 M -15.9610004425 1.3799999952 C -15.9610004425 8.3629999161 -14.5850000381 14.654999733 -11.8249998093 20.2539997101 C -9.0649995804 25.8540000916 -5.1880002022 30.158000946 -0.1979999989 33.1660003662 C 4.7960000038 36.1739997864 10.5329999924 37.6759986877 17.013999939 37.6759986877 C 26.6049995422 37.6759986877 34.3899993896 34.5800018311 40.3709983826 28.3880004883 C 46.3479995728 22.2000007629 49.5769996643 13.986000061 50.0620002747 3.753000021 L 50.1259994507 0 C 50.1259994507 -7.0289998055 48.7770004272 -13.3059997559 46.0849990845 -18.8400001526 C 43.3899993896 -24.375 39.5400009155 -28.6560001373 34.5229988098 -31.6830005646 C 29.5060005188 -34.7140007019 23.7159996033 -36.2319984436 17.1469993591 -36.2319984436 C 7.117000103 -36.2319984436 -0.9110000134 -32.8829994202 -6.9299998283 -26.1870002747 C -12.954000473 -19.4899997711 -15.9610004425 -10.5649995804 -15.9610004425 0.5929999948 Z" style="fill: rgb(67, 81, 102); fill-opacity: 1;"/>
    </g>
  </g>
  <g style="clip-path: url(&quot;#clippath7&quot;); transform-origin: 1594.5px 1896.36px;" transform="matrix(1, 0, 0, -1, -1594.495972, -1896.358521)">
    <g transform="translate(2156.4036 1830.2644)">
      <path d="M 0 0 C -2.0999999046 0.3519999981 -4.2699999809 0.52700001 -6.5029997826 0.52700001 C -13.8190002441 0.52700001 -18.7439994812 -2.2860000134 -21.283000946 -7.9010000229 L -21.283000946 -56.6469993591 L -37.2490005493 -56.6469993591 L -37.2490005493 14.6239995956 L -22.0079994202 14.6239995956 L -21.6149997711 6.6510000229 C -17.7609996796 12.843000412 -12.4160003662 15.9429998398 -5.5850000381 15.9429998398 C -3.3090000153 15.9429998398 -1.425999999 15.6330003738 0.0649999976 15.0220003128 Z" style="fill: rgb(67, 81, 102); fill-opacity: 1;"/>
    </g>
  </g>
  <g style="clip-path: url(&quot;#clippath7&quot;); transform-origin: 1594.5px 1896.36px;" transform="matrix(1, 0, 0, -1, -1594.495972, -1896.358521)">
    <g transform="translate(2223.1501 1814.2585)">
      <path d="M 0 0 L -38.4990005493 0 L -38.4990005493 -40.6430015564 L -55.1160011292 -40.6430015564 L -55.1160011292 55.266998291 L 5.6500000954 55.266998291 L 5.6500000954 41.8269996643 L -38.4990005493 41.8269996643 L -38.4990005493 13.3050003052 L 0 13.3050003052 Z" style="fill: rgb(67, 81, 102); fill-opacity: 1;"/>
    </g>
  </g>
  <g style="clip-path: url(&quot;#clippath7&quot;); transform-origin: 1594.5px 1896.36px;" transform="matrix(1, 0, 0, -1, -1594.495972, -1896.358521)">
    <g transform="">
      <path d="M 2254.6840820313 1773.6149902344 L 2238.7229003906 1773.6149902344 L 2238.7229003906 1869.7309570313 L 2254.6840820313 1869.7309570313 Z" style="fill: rgb(67, 81, 102); fill-opacity: 1;"/>
    </g>
    <g transform="translate(2282.3467 1808.5283)">
      <path d="M 0 0 C 0 -7.3350000381 1.5099999905 -13.0760002136 4.5329999924 -17.2269992828 C 7.5560002327 -21.3780002594 11.7600002289 -23.454000473 17.1469993591 -23.454000473 C 22.5340003967 -23.454000473 26.7269992828 -21.3439998627 29.7269992828 -17.1240005493 C 32.7270011902 -12.9119997025 34.2290000916 -6.742000103 34.2290000916 1.3799999952 C 34.2290000916 8.5850000381 32.6819992065 14.2919998169 29.5979995728 18.5079994202 C 26.5100002289 22.7240009308 22.3159999847 24.8330001831 17.013999939 24.8330001831 C 11.8020000458 24.8330001831 7.6620001793 22.7579994202 4.6009998322 18.607000351 C 1.5319999456 14.4560003281 0 8.251999855 0 0 M -15.9619998932 1.3799999952 C -15.9619998932 8.3629999161 -14.5850000381 14.654999733 -11.8249998093 20.2539997101 C -9.0649995804 25.8540000916 -5.1880002022 30.158000946 -0.1979999989 33.1660003662 C 4.7960000038 36.1739997864 10.5329999924 37.6759986877 17.013999939 37.6759986877 C 26.6049995422 37.6759986877 34.388999939 34.5800018311 40.3709983826 28.3880004883 C 46.3479995728 22.2000007629 49.5769996643 13.986000061 50.061000824 3.753000021 L 50.1259994507 0 C 50.1259994507 -7.0289998055 48.7770004272 -13.3059997559 46.0849990845 -18.8400001526 C 43.3940010071 -24.375 39.5400009155 -28.6560001373 34.5229988098 -31.6830005646 C 29.5100002289 -34.7140007019 23.7159996033 -36.2319984436 17.1469993591 -36.2319984436 C 7.117000103 -36.2319984436 -0.9070000052 -32.8829994202 -6.9310002327 -26.1870002747 C -12.954000473 -19.4899997711 -15.9619998932 -10.5649995804 -15.9619998932 0.5929999948 Z" style="fill: rgb(67, 81, 102); fill-opacity: 1;"/>
    </g>
    <g transform="translate(2404.5149 1795.6842)">
      <path d="M 0 0 L 11.2989997864 49.2039985657 L 26.8680000305 49.2039985657 L 7.4869999886 -22.0659999847 L -5.6500000954 -22.0659999847 L -20.8910007477 26.8710002899 L -35.8689994812 -22.0659999847 L -49.0089988708 -22.0659999847 L -68.4550018311 49.2039985657 L -52.8860015869 49.2039985657 L -41.388999939 0.52700001 L -26.8029994965 49.2039985657 L -14.779999733 49.2039985657 Z" style="fill: rgb(67, 81, 102); fill-opacity: 1;"/>
    </g>
    <g transform="translate(2525.8833 1780.2993)">
      <path d="M 0 0 L 21.2560005188 -19.4409999847 L 15.8470001221 -24.5680007935 L -5.2199997902 -5.3940000534 Z M 14.5740003586 35.6850013733 L 14.5740003586 46.1380004883 C 14.5740003586 51.8619995117 13.9379997253 57.0099983215 12.6639995575 61.5839996338 C 11.390999794 66.1529998779 9.5349998474 70.0599975586 7.0960001945 73.3010025024 C 4.6550002098 76.5400009155 1.6870000362 79.0270004272 -1.8129999638 80.7570037842 C -5.3130002022 82.4879989624 -9.3140001297 83.3539962769 -13.8100004196 83.3539962769 C -18.1800003052 83.3539962769 -22.1049995422 82.4879989624 -25.5830001831 80.7570037842 C -29.0629997253 79.0270004272 -32.0229988098 76.5400009155 -34.4620018005 73.3010025024 C -36.9029998779 70.0599975586 -38.7690010071 66.1529998779 -40.0620002747 61.5839996338 C -41.3569984436 57.0099983215 -42.0029983521 51.8619995117 -42.0029983521 46.1380004883 L -42.0029983521 35.6850013733 C -42.0029983521 29.9139995575 -41.3569984436 24.7220001221 -40.0620002747 20.1060009003 C -38.7690010071 15.4879999161 -36.8909988403 11.5600004196 -34.4290008545 8.3210000992 C -31.9699993134 5.0809998512 -28.9899997711 2.5959999561 -25.4899997711 0.8650000095 C -21.9880008698 -0.8669999838 -18.0540008545 -1.7309999466 -13.6840000153 -1.7309999466 C -9.1879997253 -1.7309999466 -5.1869997978 -0.8669999838 -1.6870000362 0.8650000095 C 1.8129999638 2.5959999561 4.7729997635 5.0809998512 7.1909999847 8.3210000992 C 9.6099996567 11.5600004196 11.4440002441 15.4879999161 12.6960000992 20.1060009003 C 13.9460000992 24.7220001221 14.5740003586 29.9139995575 14.5740003586 35.6850013733 M 22.3369998932 46.0050010681 L 22.3369998932 35.6850013733 C 22.3369998932 28.8939990997 21.5 22.7460002899 19.8239994049 17.2420005798 C 18.1480007172 11.7390003204 15.7290000916 7.0329999924 12.5679998398 3.128000021 C 9.406999588 -0.7779999971 5.6199998856 -3.7730000019 1.2089999914 -5.859000206 C -3.2039999962 -7.9460000992 -8.1689996719 -8.9899997711 -13.6840000153 -8.9899997711 C -19.0720005035 -8.9899997711 -23.9829998016 -7.9460000992 -28.4169998169 -5.859000206 C -32.8499984741 -3.7730000019 -36.6689987183 -0.7779999971 -39.8709983826 3.128000021 C -43.0760002136 7.0329999924 -45.5359992981 11.7390003204 -47.2529983521 17.2420005798 C -48.9729995728 22.7460002899 -49.8310012817 28.8939990997 -49.8310012817 35.6850013733 L -49.8310012817 46.0050010681 C -49.8310012817 52.7960014343 -48.9729995728 58.9309997559 -47.2529983521 64.4120025635 C -45.5359992981 69.8939971924 -43.0849990845 74.5869979858 -39.9029998779 78.4929962158 C -36.7220001221 82.3990020752 -32.9249992371 85.3949966431 -28.5119991302 87.483001709 C -24.0990009308 89.5670013428 -19.1989994049 90.611000061 -13.8100004196 90.611000061 C -8.2950000763 90.611000061 -3.3210000992 89.5670013428 1.1139999628 87.483001709 C 5.5469999313 85.3949966431 9.3439998627 82.3990020752 12.5050001144 78.4929962158 C 15.6660003662 74.5869979858 18.0949993134 69.8939971924 19.7919998169 64.4120025635 C 21.4890003204 58.9309997559 22.3369998932 52.7960014343 22.3369998932 46.0050010681" style="fill: rgb(67, 81, 102); fill-opacity: 1;"/>
    </g>
    <g transform="translate(2610.6536 1789.287)">
      <path d="M 0 0 L 0 55.391998291 L 7.6999998093 55.391998291 L 7.6999998093 -16.6450004578 L 0.3170000017 -16.6450004578 Z M 1.3999999762 13.3819999695 L 5.3460001945 13.5150003433 C 5.3460001945 8.9879999161 4.8359999657 4.8029999733 3.8180000782 0.9649999738 C 2.7990000248 -2.8740000725 1.2089999914 -6.2039999962 -0.9549999833 -9.0220003128 C -3.1180000305 -11.8409996033 -5.9190001488 -14.0389995575 -9.3559999466 -15.6129999161 C -12.7919998169 -17.1870002747 -16.9279994965 -17.9769992828 -21.7660007477 -17.9769992828 C -25.1180000305 -17.9769992828 -28.1830005646 -17.4650001526 -30.9619998932 -16.4449996948 C -33.7400016785 -15.4250001907 -36.1279983521 -13.8389997482 -38.1209983826 -11.6850004196 C -40.1160011292 -9.531999588 -41.6529998779 -6.7239999771 -42.7350006104 -3.2630000114 C -43.8180007935 0.200000003 -44.3590011597 4.3940000534 -44.3590011597 9.3199996948 L -44.3590011597 55.391998291 L -36.7849998474 55.391998291 L -36.7849998474 9.1870002747 C -36.7849998474 5.3699998856 -36.3709983826 2.1630001068 -35.5429992676 -0.4329999983 C -34.7159996033 -3.0290000439 -33.5719985962 -5.0929999352 -32.108001709 -6.625 C -30.6439990997 -8.156999588 -28.9570007324 -9.2550001144 -27.0489997864 -9.920999527 C -25.1380004883 -10.5860004425 -23.0809993744 -10.9189996719 -20.875 -10.9189996719 C -15.2729997635 -10.9189996719 -10.8500003815 -9.8000001907 -7.6059999466 -7.5570001602 C -4.3600001335 -5.3169999123 -2.0469999313 -2.3420000076 -0.6690000296 1.3650000095 C 0.7099999785 5.0700001717 1.3999999762 9.0760002136 1.3999999762 13.3819999695" style="fill: rgb(67, 81, 102); fill-opacity: 1;"/>
    </g>
    <g transform="translate(2680.0225 1785.5582)">
      <path d="M 0 0 L 0 37.1500015259 C 0 40.5670013428 -0.67900002 43.5180015564 -2.0369999409 46.0050010681 C -3.3949999809 48.4900016785 -5.388999939 50.3989982605 -8.0190000534 51.7309989929 C -10.6490001678 53.0620002747 -13.8950004578 53.7270011902 -17.7549991608 53.7270011902 C -21.3209991455 53.7270011902 -24.4920005798 53.0719985962 -27.2700004578 51.763999939 C -30.0489997864 50.452999115 -32.2340011597 48.7019996643 -33.8260002136 46.5050010681 C -35.4169998169 44.3069992065 -36.2120018005 41.8769989014 -36.2120018005 39.2140007019 L -43.7859992981 39.28099823 C -43.7859992981 41.9879989624 -43.1599998474 44.6059989929 -41.9070014954 47.1360015869 C -40.6570014954 49.6669998169 -38.8650016785 51.9309997559 -36.5289993286 53.9280014038 C -34.1980018616 55.9259986877 -31.406999588 57.5120010376 -28.1609992981 58.6870002747 C -24.9160003662 59.8629989624 -21.3209991455 60.452999115 -17.3729991913 60.452999115 C -12.4949998856 60.452999115 -8.1770000458 59.5859985352 -4.4229998589 57.8549995422 C -0.6690000296 56.125 2.2809998989 53.5270004272 4.4229998589 50.0660018921 C 6.5650000572 46.6040000916 7.6370000839 42.2540016174 7.6370000839 37.016998291 L 7.6370000839 2.1970000267 C 7.6370000839 -0.2899999917 7.8179998398 -2.8619999886 8.1770000458 -5.5269999504 C 8.5369997025 -8.1890001297 9.0579996109 -10.3640003204 9.7370004654 -12.0509996414 L 9.7370004654 -12.9160003662 L 1.5920000076 -12.9160003662 C 1.0820000172 -11.3179998398 0.6890000105 -9.3100004196 0.4149999917 -6.890999794 C 0.1360000074 -4.4730000496 0 -2.1749999523 0 0 M 1.7819999456 29.0270004272 L 1.9090000391 22.9020004272 L -12.9829998016 22.9020004272 C -16.8869991302 22.9020004272 -20.375 22.5370006561 -23.4510002136 21.8029994965 C -26.5279998779 21.0709991455 -29.1259994507 20.0170001984 -31.2479991913 18.6410007477 C -33.3699989319 17.2660007477 -34.9920005798 15.5889997482 -36.1160011292 13.6149997711 C -37.2400016785 11.6400003433 -37.8030014038 9.4090003967 -37.8030014038 6.9239997864 C -37.8030014038 4.3499999046 -37.1879997253 1.996999979 -35.9580001831 -0.1330000013 C -34.7280006409 -2.263999939 -32.9449996948 -3.9509999752 -30.6119995117 -5.1919999123 C -28.2779998779 -6.4359998703 -25.5200004578 -7.0570001602 -22.3390007019 -7.0570001602 C -18.1369991302 -7.0570001602 -14.4160003662 -6.248000145 -11.1689996719 -4.6279997826 C -7.9229998589 -3.0069999695 -5.2399997711 -0.8650000095 -3.1180000305 1.7979999781 C -0.9980000257 4.4609999657 0.4230000079 7.367000103 1.1460000277 10.5200004578 L 4.4559998512 5.9260001183 C 3.9030001163 3.7490000725 2.8959999084 1.4859999418 1.4309999943 -0.8650000095 C -0.0320000015 -3.2190001011 -1.9210000038 -5.4039998055 -4.2319998741 -7.4239997864 C -6.5450000763 -9.4429998398 -9.2810001373 -11.0860004425 -12.4420003891 -12.3500003815 C -15.6029996872 -13.6160001755 -19.1979999542 -14.248000145 -23.2290000916 -14.248000145 C -27.6830005646 -14.248000145 -31.5879993439 -13.3489999771 -34.938999176 -11.5520000458 C -38.2910003662 -9.7539997101 -40.8790016174 -7.3130002022 -42.7019996643 -4.2290000916 C -44.5279998779 -1.1430000067 -45.4399986267 2.3519999981 -45.4399986267 6.257999897 C -45.4399986267 9.763999939 -44.71900177 12.9259996414 -43.2760009766 15.7460002899 C -41.8339996338 18.563999176 -39.7550010681 20.9610004425 -37.0390014648 22.936000824 C -34.3240013123 24.9090003967 -31.0249996185 26.4190006256 -27.1420001984 27.4629993439 C -23.2619991302 28.5049991608 -18.9020004272 29.0270004272 -14.0640001297 29.0270004272 Z" style="fill: rgb(67, 81, 102); fill-opacity: 1;"/>
    </g>
    <g transform="translate(2713.9419 1813.1218)">
      <path d="M 0 0 L -3.371999979 1.9960000515 C -3.1610000134 6.2569999695 -2.3540000916 10.251999855 -0.9539999962 13.9809999466 C 0.4449999928 17.7089996338 2.3440001011 20.9930000305 4.742000103 23.8330001831 C 7.138999939 26.6730003357 9.970000267 28.8939990997 13.2390003204 30.4909992218 C 16.5049991608 32.0890007019 20.111000061 32.888999939 24.0559997559 32.888999939 C 27.4939994812 32.888999939 30.5690002441 32.4000015259 33.2849998474 31.4239997864 C 35.9990005493 30.4459991455 38.3019981384 28.9039993286 40.1899986267 26.795999527 C 42.077999115 24.6879997253 43.5200004578 21.9580001831 44.516998291 18.6079998016 C 45.5130004883 15.2559995651 46.0130004883 11.2049999237 46.0130004883 6.4559998512 L 46.0130004883 -40.4799995422 L 38.3759994507 -40.4799995422 L 38.3759994507 6.5250000954 C 38.3759994507 11.4510002136 37.7179985046 15.3229999542 36.4029998779 18.1410007477 C 35.0880012512 20.9589996338 33.2220001221 22.968000412 30.8029994965 24.1669998169 C 28.3840007782 25.3649997711 25.5200004578 25.9640007019 22.2110004425 25.9640007019 C 18.5620002747 25.9640007019 15.3690004349 25.1329994202 12.6330003738 23.468000412 C 9.8970003128 21.8029994965 7.6059999466 19.6509990692 5.7600002289 17.0100002289 C 3.9149999619 14.3680000305 2.5039999485 11.5500001907 1.5279999971 8.5539999008 C 0.550999999 5.5590000153 0.0419999994 2.7049999237 0 0 M 1.6549999714 16.1779994965 L 1.6549999714 -40.4799995422 L -5.9169998169 -40.4799995422 L -5.9169998169 31.5569992065 L 1.3370000124 31.5569992065 Z" style="fill: rgb(67, 81, 102); fill-opacity: 1;"/>
    </g>
    <g transform="translate(2783.8838 1863.1864)">
      <path d="M 0 0 L 7.6370000839 0 L 7.6370000839 -72.9680023193 C 7.6370000839 -76.2959976196 8.0509996414 -78.8170013428 8.8789997101 -80.5250015259 C 9.7060003281 -82.2340011597 10.8079996109 -83.3649978638 12.1879997253 -83.9189987183 C 13.5659999847 -84.4749984741 15.0399999619 -84.7519989014 16.611000061 -84.7519989014 C 17.7549991608 -84.7519989014 18.8470001221 -84.6750030518 19.8880004883 -84.5199966431 C 20.9270000458 -84.3639984131 21.8920001984 -84.21900177 22.7840003967 -84.0859985352 L 23.1009998322 -90.8099975586 C 22.1679992676 -91.1210021973 20.9489994049 -91.3769989014 19.4419994354 -91.5759963989 C 17.936000824 -91.7760009766 16.4400005341 -91.8769989014 14.9560003281 -91.8769989014 C 12.0279998779 -91.8769989014 9.4399995804 -91.297996521 7.1919999123 -90.1449966431 C 4.9419999123 -88.9899978638 3.1809999943 -87.0390014648 1.9090000391 -84.2860031128 C 0.6359999776 -81.533996582 0 -77.7610015869 0 -72.9680023193 Z M 21.8920001984 -25.031999588 L -12.6649999619 -25.031999588 L -12.6649999619 -18.5069999695 L 21.8920001984 -18.5069999695 Z" style="fill: rgb(67, 81, 102); fill-opacity: 1;"/>
    </g>
    <g transform="translate(2865.7271 1789.287)">
      <path d="M 0 0 L 0 55.391998291 L 7.6999998093 55.391998291 L 7.6999998093 -16.6450004578 L 0.3170000017 -16.6450004578 Z M 1.3999999762 13.3819999695 L 5.3460001945 13.5150003433 C 5.3460001945 8.9879999161 4.8359999657 4.8029999733 3.8180000782 0.9649999738 C 2.7990000248 -2.8740000725 1.2089999914 -6.2039999962 -0.9549999833 -9.0220003128 C -3.1180000305 -11.8409996033 -5.9190001488 -14.0389995575 -9.3559999466 -15.6129999161 C -12.7919998169 -17.1870002747 -16.9279994965 -17.9769992828 -21.7660007477 -17.9769992828 C -25.1180000305 -17.9769992828 -28.1830005646 -17.4650001526 -30.9619998932 -16.4449996948 C -33.7400016785 -15.4250001907 -36.1279983521 -13.8389997482 -38.1209983826 -11.6850004196 C -40.1160011292 -9.531999588 -41.6529998779 -6.7239999771 -42.7350006104 -3.2630000114 C -43.8180007935 0.200000003 -44.3590011597 4.3940000534 -44.3590011597 9.3199996948 L -44.3590011597 55.391998291 L -36.7849998474 55.391998291 L -36.7849998474 9.1870002747 C -36.7849998474 5.3699998856 -36.3709983826 2.1630001068 -35.5429992676 -0.4329999983 C -34.7159996033 -3.0290000439 -33.5719985962 -5.0929999352 -32.108001709 -6.625 C -30.6439990997 -8.156999588 -28.9570007324 -9.2550001144 -27.0489997864 -9.920999527 C -25.1380004883 -10.5860004425 -23.0809993744 -10.9189996719 -20.875 -10.9189996719 C -15.2729997635 -10.9189996719 -10.8500003815 -9.8000001907 -7.6059999466 -7.5570001602 C -4.3600001335 -5.3169999123 -2.0469999313 -2.3420000076 -0.6690000296 1.3650000095 C 0.7099999785 5.0700001717 1.3999999762 9.0760002136 1.3999999762 13.3819999695" style="fill: rgb(67, 81, 102); fill-opacity: 1;"/>
    </g>
    <g transform="translate(2944.7693 1819.3787)">
      <path d="M 0 0 L -5.0920000076 -0.1330000013 C -4.8800001144 3.3740000725 -4.1040000916 6.7239999771 -2.7679998875 9.920999527 C -1.4309999943 13.1160001755 0.4029999971 15.968000412 2.736000061 18.4750003815 C 5.0700001717 20.9829998016 7.8600001335 22.9699993134 11.1049995422 24.4349994659 C 14.3509998322 25.8990001678 18.0109996796 26.6319999695 22.0830001831 26.6319999695 C 25.6480007172 26.6319999695 28.829000473 26.1319999695 31.6299991608 25.1329994202 C 34.4290008545 24.1350002289 36.7949981689 22.5709991455 38.7260017395 20.4400005341 C 40.65599823 18.3099994659 42.1310005188 15.5810003281 43.1489982605 12.2510004044 C 44.1679992676 8.920999527 44.6759986877 4.9279999733 44.6759986877 0.2680000067 L 44.6759986877 -46.7369995117 L 37.0390014648 -46.7369995117 L 37.0390014648 0.3339999914 C 37.0390014648 5.3940000534 36.327999115 9.3319997787 34.9070014954 12.1499996185 C 33.4850006104 14.970000267 31.5230007172 16.9330005646 29.0209999084 18.0440006256 C 26.5160007477 19.1520004272 23.5890007019 19.7070007324 20.2380008698 19.7070007324 C 16.9279994965 19.6620006561 14.0209999084 19.0300006866 11.5190000534 17.8099994659 C 9.0150003433 16.5890007019 6.9260001183 14.9899997711 5.25 13.0170001984 C 3.5739998817 11.0419998169 2.3010001183 8.920999527 1.4309999943 6.6579999924 C 0.5609999895 4.3940000534 0.0850000009 2.1749999523 0 0 M -45.7569999695 -6.2569999695 L -49.3849983215 -4.2610001564 C -49.1739997864 0 -48.4099998474 3.9949998856 -47.0950012207 7.7239999771 C -45.7799987793 11.4530000687 -43.9659996033 14.736000061 -41.6529998779 17.5760002136 C -39.3400001526 20.4160003662 -36.5410003662 22.6369991302 -33.2519989014 24.2339992523 C -29.9650001526 25.8320007324 -26.2420005798 26.6319999695 -22.0830001831 26.6319999695 C -18.7329998016 26.6319999695 -15.6979999542 26.1550006866 -12.9829998016 25.1989994049 C -10.2690000534 24.2460002899 -7.9340000153 22.7579994202 -5.9819998741 20.7390003204 C -4.0310001373 18.7189998627 -2.5360000134 16.1009998322 -1.4960000515 12.8839998245 C -0.4569999874 9.6649999619 0.063000001 5.7930002213 0.063000001 1.2660000324 L 0.063000001 -46.7369995117 L -7.5089998245 -46.7369995117 L -7.5089998245 0.9330000281 C -7.5089998245 5.7259998322 -8.220000267 9.4770002365 -9.640999794 12.1840000153 C -11.0629997253 14.890999794 -13.0369997025 16.8220005035 -15.5600004196 17.9769992828 C -18.0839996338 19.1299991608 -21.0009994507 19.7070007324 -24.311000824 19.7070007324 C -28.2150001526 19.7070007324 -31.5119991302 18.8759994507 -34.2080001831 17.2110004425 C -36.9029998779 15.545999527 -39.0859985352 13.3940000534 -40.7630004883 10.7530002594 C -42.4379997253 8.111000061 -43.6689987183 5.2930002213 -44.4519996643 2.2980000973 C -45.2389984131 -0.6980000138 -45.6739997864 -3.5510001183 -45.7569999695 -6.2569999695 M -44.2939987183 10.4530000687 L -44.2939987183 -46.7369995117 L -51.9949989319 -46.7369995117 L -51.9949989319 25.2999992371 L -44.6129989624 25.2999992371 Z" style="fill: rgb(67, 81, 102); fill-opacity: 1;"/>
    </g>
  </g>
</svg>